<svg width="66" height="45" viewBox="0 0 66 45" fill="none" xmlns="http://www.w3.org/2000/svg" aria-label="EF Education First"><g clip-path="url(#clip0_147_1465)"><path fill-rule="evenodd" clip-rule="evenodd" d="M22.4825 8.63432H19.3149C19.9242 7.89413 20.5768 7.17287 21.2759 6.4732C24.399 3.34676 28.0494 1.17174 31.7602 0H35.2145L34.8146 1.95234C30.5283 2.577 26.3523 4.74876 22.9921 8.1104C22.8183 8.28428 22.6488 8.46034 22.4825 8.63432ZM7.82436 6.49008L9.1528 1.97146e-05H13.1104C11.0934 2.05093 9.3264 4.21856 7.82436 6.49008ZM20.4646 40.096H20.9147L20.689 41.2098H21.4243L21.3586 41.5875H20.6074L20.1266 43.9503C20.0895 44.1221 20.0768 44.1853 20.0789 44.3011C20.0798 44.4294 20.1467 44.5566 20.3151 44.5566C20.4941 44.5566 20.6658 44.5416 20.8438 44.5143L20.7675 44.9066C20.6191 44.9236 20.4613 44.9362 20.3117 44.9362C19.9771 44.9362 19.6341 44.8514 19.6297 44.4071C19.6297 44.3288 19.6424 44.1939 19.6742 44.0287L20.1593 41.5875H19.4942L19.5787 41.2098H20.2419L20.4646 40.096ZM11.0299 13.5718C9.47164 17.0502 8.68025 20.5751 8.68025 24.045C8.68025 26.7132 9.15486 29.2583 10.0913 31.6125C10.9007 33.6486 12.0448 35.5065 13.4982 37.1526H19.9762C19.0673 36.5714 18.2292 35.8968 17.4687 35.1346C13.8075 31.4705 12.0701 26.4745 12.5808 21.0715C12.8331 18.4032 13.6179 15.7331 14.9135 13.1328C16.2514 10.4456 18.1 7.91535 20.4063 5.6046C22.6043 3.40406 25.0939 1.61397 27.8046 0.288455C28.007 0.188699 28.2083 0.0932798 28.4117 2.95719e-05H22.1499C20.7293 1.04234 19.3712 2.20679 18.0894 3.4911C15.0258 6.5579 12.6497 9.94921 11.0299 13.5718ZM39.0535 24.116C41.2541 21.9125 42.4659 19.379 42.4659 16.978C42.4659 15.1307 41.7671 13.4573 40.4459 12.1328C39.8154 11.5029 39.0701 11.0268 38.2331 10.7127L37.8091 12.7892C38.2274 13.0182 38.6091 13.3004 38.9435 13.6354C40.1019 14.7956 40.6612 16.3885 40.5232 18.1235C40.3856 19.8455 39.5583 21.5488 38.1919 22.9167C37.3624 23.7471 36.3778 24.4065 35.3398 24.8541L34.9423 26.7959C36.3969 26.2529 37.818 25.3537 39.0535 24.116ZM39.9226 24.9856C42.3559 22.5508 43.6947 19.7056 43.6947 16.978C43.6947 14.7978 42.8721 12.8231 41.3137 11.2643C40.5232 10.4732 39.5583 9.87708 38.4798 9.50378L38.9641 7.14118C40.5244 7.53547 41.9114 8.3077 43.0253 9.42542C47.3014 13.7075 46.4916 20.9706 41.1441 26.3228C39.0844 28.3867 36.6534 29.8203 34.1896 30.4756L34.6567 28.1936C36.5699 27.6188 38.3937 26.5158 39.9226 24.9856ZM39.2985 18.0247C39.4079 16.6558 38.9736 15.4064 38.0752 14.5061C37.9122 14.3439 37.7358 14.1975 37.5478 14.0681L35.6523 23.326C36.2533 22.9804 36.8196 22.5508 37.3229 22.0461C38.4833 20.8847 39.1842 19.4565 39.2985 18.0247ZM2.71828 31.4491C2.97893 32.463 3.30308 33.4534 3.69085 34.4228C4.06572 35.3624 4.49692 36.2731 4.98326 37.1526H1.55093L2.71828 31.4491ZM7.45138 24.046C7.45138 20.4013 8.27891 16.7056 9.90807 13.0672C11.5903 9.30975 14.0512 5.7965 17.2208 2.62255C18.155 1.6861 19.1277 0.812253 20.1339 9.85731e-06H14.8585C14.6465 0.204648 14.4367 0.41037 14.2271 0.619345C11.299 3.55042 8.90281 6.73601 7.08172 10.1169L3.35813 28.3207C3.62094 30.2796 4.1124 32.1683 4.83161 33.9666C5.27236 35.0718 5.79681 36.1343 6.40071 37.1526H11.8944C10.6677 35.6085 9.6813 33.9053 8.94928 32.0663C7.95573 29.5701 7.45138 26.8701 7.45138 24.046ZM9.4251 44.6204C10.0723 44.6204 10.6593 44.0348 10.8498 43.0971L11.2386 41.2099H11.6867L10.9304 44.8918H10.5161L10.639 44.2227H10.6252C10.3498 44.6563 9.8689 45 9.31915 45C8.67822 45 8.20468 44.7133 8.1973 44.0073C8.1973 43.8927 8.21847 43.7432 8.25136 43.5748L8.73543 41.2099H9.18356L8.69309 43.5874C8.66551 43.6995 8.64434 43.8365 8.64641 43.9583C8.65074 44.4442 9.02355 44.6204 9.4251 44.6204ZM1.43863 40.2087H4.36354L4.45148 39.7949H1.03599L0 44.8918H3.48107L3.5689 44.4803H0.57299L0.983013 42.4654H3.70774L3.79656 42.0498H1.06356L1.43863 40.2087ZM4.5933 43.5217C4.5996 44.1493 4.91963 44.6204 5.59768 44.6204C6.62944 44.6204 7.19091 43.4539 7.18126 42.5439C7.17495 41.9024 6.7988 41.4803 6.1432 41.4803C5.10829 41.4803 4.58493 42.6211 4.5933 43.5217ZM7.35387 41.9024L7.77443 39.7948H8.22483L7.18244 44.8918H6.74819L6.90584 44.2269H6.88999C6.5807 44.7133 6.20563 45 5.55731 45C4.61349 45 4.15374 44.3946 4.14527 43.494C4.13463 42.3647 4.89846 41.1018 6.13473 41.1018C6.71195 41.1018 7.16964 41.3221 7.3393 41.9024H7.35387ZM17.8096 22.7024C17.8033 22.5275 17.7991 22.3524 17.7991 22.1765C17.7991 19.4001 18.5852 16.5898 20.0682 13.9388H22.6975C21.2897 16.2952 20.5217 18.8849 20.5217 21.4172C20.5217 21.852 20.545 22.2804 20.5905 22.7024H17.8096ZM30.2432 13.9388H27.9773C26.131 15.9642 25.081 18.4181 25.081 20.748C25.081 21.4331 25.168 22.0853 25.3375 22.7024H27.5239C27.151 21.9452 26.9529 21.0927 26.9529 20.1976C26.9529 18.2359 27.8535 16.2538 29.489 14.6152C29.7306 14.3736 29.9815 14.1478 30.2432 13.9388ZM21.8247 22.7024C21.776 22.2837 21.7494 21.8551 21.7494 21.4172C21.7494 18.8795 22.6012 16.2696 24.1478 13.9388H26.3671C25.7177 14.7724 25.1827 15.6535 24.7738 16.5792C24.1627 17.9559 23.8522 19.3589 23.8522 20.748C23.8522 21.4194 23.9284 22.0748 24.0746 22.7024H21.8247ZM42.0125 27.1936C39.639 29.57 36.7936 31.1734 33.9181 31.8066L33.4161 34.2637C37.134 33.531 40.8275 31.5456 43.716 28.6538C46.9916 25.3761 49.1099 21.3972 49.6845 17.45C49.7884 16.7353 49.8384 16.0322 49.839 15.344C49.839 15.1817 49.8361 15.0182 49.8307 14.8573C49.7152 11.6502 48.4597 8.77861 46.1285 6.4444C44.389 4.7032 42.1862 3.63743 39.7682 3.21208L39.2118 5.93448C41.0065 6.37973 42.6041 7.26413 43.8966 8.55583C48.6654 13.3322 47.8559 21.3451 42.0125 27.1936ZM50.4708 11.2813C49.8218 9.15189 48.6525 7.23227 46.997 5.57378C45.5363 4.11145 43.7617 3.04981 41.7267 2.41688C41.1674 2.24496 40.5978 2.10706 40.0159 2.00435L40.4261 5.91439e-05H44.0148C45.9637 0.718953 47.7396 1.82396 49.242 3.32769C50.7924 4.88239 51.9684 6.664 52.7438 8.63428H51.1047L50.5256 11.4657C50.5077 11.4044 50.4893 11.3427 50.4708 11.2813ZM54.0562 8.63432H58.2373C57.4431 5.3957 55.8732 2.45605 53.5932 0H46.8924C48.072 0.674437 49.1482 1.49526 50.1105 2.45822C51.8986 4.25038 53.2247 6.32465 54.0562 8.63432ZM34.5516 3.24289L34.0251 5.81969C31.7644 6.22916 29.5526 7.19745 27.5663 8.63435H24.2145C27.2909 5.68938 30.9605 3.86636 34.5516 3.24289ZM33.758 7.1264C32.417 7.42331 31.0961 7.93224 29.8429 8.63428H33.4509L33.758 7.1264ZM18.3372 34.2669C14.939 30.864 13.3287 26.2179 13.8033 21.187C14.1953 17.0397 15.992 12.8466 18.9347 9.10729L17.9538 13.9388H18.6743C17.297 16.5964 16.5702 19.3981 16.5702 22.1754C16.5702 22.3524 16.5746 22.5265 16.5809 22.7014H16.1487L15.0227 28.3378H17.9412C18.5746 29.655 19.42 30.8576 20.4582 31.8956C22.4771 33.9161 25.0197 35.184 27.9076 35.6295L27.5907 37.1526H22.5768C20.971 36.445 19.547 35.4767 18.3372 34.2669ZM29.4211 28.3463L29.4243 28.3378H29.3925H24.6521C25.8893 29.4831 27.3449 30.2574 28.9466 30.6283L29.4211 28.3463ZM14.8774 42.3572C14.9072 41.8098 14.5119 41.4803 13.9833 41.4803C12.9072 41.4803 12.4039 42.5205 12.4135 43.4792C12.4198 44.1348 12.7514 44.6204 13.4494 44.6204C14.0426 44.6204 14.4664 44.2342 14.654 43.6996H15.102C14.8393 44.5416 14.2863 45 13.3965 45C12.4835 45 11.9706 44.3869 11.9622 43.4792C11.9514 42.3319 12.6762 41.1018 13.9388 41.1018C14.7376 41.1018 15.3457 41.5014 15.3266 42.3572H14.8774ZM28.6957 31.8331C26.7357 31.3877 24.9687 30.4058 23.4985 28.9348C23.3057 28.7419 23.1244 28.5436 22.9497 28.3378H19.3225C19.8584 29.324 20.5301 30.2276 21.3269 31.0261C23.1701 32.8713 25.5026 34.0241 28.1574 34.4205L28.6957 31.8331ZM35.5115 44.8918H35.06L35.8184 41.2098H36.269L35.5115 44.8918ZM43.5272 40.096H43.0773L42.8529 41.2098H42.1882L42.1062 41.5864H42.7709L42.2882 44.0287C42.254 44.1918 42.2397 44.3299 42.2397 44.4062C42.2436 44.8493 42.591 44.9362 42.9234 44.9362C43.0648 44.9362 43.2121 44.9233 43.3543 44.9109L43.3816 44.9085L43.4554 44.5143C43.2763 44.544 43.1067 44.5566 42.9289 44.5566C42.7573 44.5566 42.693 44.4294 42.693 44.3C42.6909 44.1877 42.7011 44.123 42.7374 43.9488L43.2202 41.5864H43.9684L44.036 41.2098H43.3008L43.5272 40.096ZM36.1111 39.7948H36.5603L36.4106 40.5161H35.9607L36.1111 39.7948ZM45.2661 37.1526L46.1074 33.0506C44.2904 34.6964 42.2444 36.0781 40.074 37.1526H45.2661ZM38.6193 41.1589C38.698 41.1589 38.7828 41.1589 38.8614 41.1654L38.765 41.6149C38.722 41.6149 38.6797 41.6133 38.6373 41.6118C38.5947 41.6102 38.552 41.6086 38.5085 41.6086C37.7045 41.6234 37.2824 42.2724 37.141 42.9659L36.7437 44.8918H36.2929L37.0519 41.2098H37.4588L37.2804 42.0581H37.2942C37.573 41.529 37.9629 41.1523 38.6193 41.1589ZM40.4615 41.4792C40.9682 41.4792 41.3658 41.7229 41.3314 42.2874H41.7828C41.7902 41.4368 41.2289 41.1002 40.4574 41.1002C39.8668 41.1002 39.0987 41.3943 39.1055 42.1071C39.1109 42.7156 39.6081 42.9365 40.1006 43.1304L40.1593 43.1525L40.2108 43.1718C40.6605 43.3396 41.0947 43.5016 41.0996 43.9447C41.1037 44.4146 40.5764 44.6223 40.1778 44.6223C39.6588 44.6223 39.1268 44.4061 39.1316 43.6954H38.6788C38.6461 44.6139 39.3687 45 40.0758 45C40.7736 45 41.5549 44.6988 41.5489 43.8714C41.5419 43.2465 40.9527 43.0215 40.4643 42.835C40.4224 42.819 40.3812 42.8033 40.3412 42.7876C39.9249 42.6211 39.5602 42.4497 39.5563 42.1071C39.5507 41.6021 40.0719 41.4792 40.4615 41.4792ZM51.0658 15.3439H53.8258C53.8031 15.8307 53.7641 16.3194 53.7033 16.8127C53.4037 19.2687 52.6277 21.7352 51.4283 24.1077H48.6738C49.8193 22.0153 50.5815 19.8191 50.9003 17.6281C51.0132 16.8561 51.0658 16.0936 51.0658 15.3439ZM61.025 1.97146e-05H55.231C57.3257 2.51117 58.7672 5.44224 59.5023 8.63434H63.9827C63.7077 6.71699 63.2182 4.86539 62.5234 3.10517C62.0974 2.02668 61.5974 0.991665 61.025 1.97146e-05ZM63.6652 2.65233C63.305 1.73905 62.894 0.854649 62.4346 1.97146e-05H65.9746L64.737 6.05527C64.46 4.89082 64.1017 3.75615 63.6652 2.65233ZM58.7855 15.3439H55.0545C55.0334 15.8805 54.9897 16.4182 54.924 16.961C54.6292 19.3662 53.905 21.7788 52.7945 24.1077H56.5851C57.7098 21.52 58.4319 18.8529 58.7117 16.19C58.7432 15.907 58.7671 15.627 58.7855 15.3439ZM57.9191 24.1087C58.9743 21.5595 59.6587 18.9379 59.9344 16.3184C59.9679 15.9939 59.9959 15.6685 60.017 15.344H62.5166L60.7522 24.1087H57.9191ZM33.149 35.5595L32.8239 37.1526H36.9521C40.3434 35.9275 43.5443 33.9222 46.1591 31.3028C46.2695 31.1942 46.3774 31.0825 46.4844 30.9717L46.5456 30.9083L47.57 25.9135C46.714 27.1798 45.7162 28.3919 44.5857 29.5235C41.3983 32.7153 37.2763 34.862 33.149 35.5595ZM22.3449 40.5161L22.493 39.7948H22.9434L22.793 40.5161H22.3449ZM21.4465 44.8918H21.8924L22.6509 41.2098H22.1998L21.4465 44.8918ZM16.886 44.6204C17.6042 44.6204 18.0599 44.1853 18.1954 43.5419L18.3309 42.9234L18.3161 42.9085C18.1881 43.0683 17.8171 43.0933 17.5793 43.1093L17.5431 43.1117L17.5068 43.1144L17.4708 43.1174L17.4097 43.1223C16.8579 43.1663 16.0537 43.2305 16.0609 43.9583C16.0661 44.4294 16.458 44.6204 16.886 44.6204ZM17.6445 41.1018C18.1424 41.1018 18.9222 41.2745 18.9285 41.9226C18.9318 42.2075 18.8367 42.6182 18.7624 42.939C18.7433 43.0217 18.7255 43.0984 18.7112 43.1654C18.6475 43.5041 18.5972 43.7363 18.56 43.9076L18.5599 43.9078L18.5599 43.9079C18.5062 44.1555 18.4801 44.276 18.4813 44.4071C18.4834 44.5375 18.6106 44.5566 18.7187 44.5566C18.7833 44.5566 18.8331 44.5502 18.8968 44.5416L18.8363 44.9002C18.7356 44.9236 18.5851 44.9362 18.4645 44.9362C18.2166 44.9362 18.0788 44.7792 18.0725 44.5375C18.0704 44.4719 18.0757 44.3996 18.0809 44.336L18.0704 44.3223C17.814 44.7498 17.3119 45 16.7969 45C16.1275 45 15.618 44.6988 15.6105 43.9775C15.6042 43.1992 16.2206 42.951 16.8744 42.8385C17.1049 42.8024 17.3219 42.7925 17.5169 42.7836C17.7208 42.7743 17.9008 42.7661 18.047 42.7302C18.3352 42.6605 18.4834 42.4928 18.4792 42.0115C18.475 41.5733 18.0427 41.4803 17.6974 41.4803C17.1264 41.4803 16.6359 41.693 16.549 42.3083H16.1C16.2143 41.4727 16.852 41.1018 17.6445 41.1018ZM35.4794 40.2097H32.7041L32.3291 42.0498H34.7889L34.7147 42.4654H32.2424L31.7443 44.8918H31.2603L32.3016 39.7948H35.5578L35.4794 40.2097ZM24.4497 44.6204C23.7018 44.6204 23.3405 44.1347 23.3331 43.4221C23.3247 42.5588 23.8586 41.4803 24.8417 41.4803C25.562 41.4803 25.9307 41.9521 25.937 42.6372C25.9444 43.494 25.4327 44.6204 24.4497 44.6204ZM24.9156 41.1018C23.6024 41.1018 22.8713 42.2576 22.8829 43.4642C22.8925 44.387 23.4211 45 24.3659 45C25.7294 45 26.3979 43.7865 26.3851 42.5439C26.3768 41.6382 25.7718 41.1018 24.9156 41.1018ZM30.3587 15.485C28.9541 16.891 28.1806 18.5634 28.1806 20.1976C28.1806 21.1415 28.4454 21.995 28.9499 22.7014H30.2655L31.9689 14.2421C31.3969 14.573 30.8513 14.9907 30.3587 15.485ZM27.6849 41.8801C27.9583 41.4431 28.4414 41.1018 28.99 41.1018C29.6309 41.1018 30.1045 41.388 30.1108 42.0919C30.1119 42.2087 30.0961 42.3571 30.0601 42.5311L29.5759 44.8917H29.1257L29.6182 42.5154C29.6426 42.4007 29.6638 42.2661 29.6638 42.145C29.6585 41.6583 29.2867 41.4803 28.8884 41.4803C28.238 41.4803 27.6521 42.0665 27.4615 43.002L27.0747 44.8917H26.6234L27.3799 41.2098H27.793L27.6744 41.8801H27.6849Z" fill="#161719"></path></g><defs><clipPath id="clip0_147_1465"><rect width="66" height="45" fill="white"></rect></clipPath></defs></svg>
